<svg xmlns="http://www.w3.org/2000/svg" width="1200" height="600" viewBox="0 0 1200 600">
  <defs>
    <linearGradient id="bg" x1="0" y1="0" x2="1" y2="1">
      <stop offset="0" stop-color="#0e0e0e"/>
      <stop offset="1" stop-color="#201f1f"/>
    </linearGradient>
    <linearGradient id="accent" x1="0" y1="0" x2="1" y2="0">
      <stop offset="0" stop-color="#81e6d9" stop-opacity="0.15"/>
      <stop offset="0.5" stop-color="#81e6d9" stop-opacity="0.35"/>
      <stop offset="1" stop-color="#81e6d9" stop-opacity="0.1"/>
    </linearGradient>
    <filter id="soft" x="-20%" y="-20%" width="140%" height="140%">
      <feGaussianBlur stdDeviation="8" />
    </filter>
  </defs>

  <rect width="1200" height="600" fill="url(#bg)"/>
  <rect x="70" y="70" width="1060" height="460" fill="#1c1b1b" stroke="#2a2a2a" stroke-width="2"/>
  <rect x="70" y="70" width="1060" height="54" fill="#1c1b1b" stroke="#2a2a2a" stroke-width="2"/>

  <circle cx="100" cy="97" r="8" fill="#ff5f57"/>
  <circle cx="124" cy="97" r="8" fill="#febc2e"/>
  <circle cx="148" cy="97" r="8" fill="#28c840"/>

  <rect x="110" y="160" width="520" height="14" fill="url(#accent)"/>
  <rect x="110" y="196" width="420" height="14" fill="url(#accent)"/>
  <rect x="110" y="232" width="610" height="14" fill="url(#accent)"/>
  <rect x="110" y="268" width="360" height="14" fill="url(#accent)"/>

  <rect x="700" y="160" width="400" height="260" fill="#131313" stroke="#353534" stroke-width="2"/>
  <path d="M720 190 H1080" stroke="#81e6d9" stroke-opacity="0.35" stroke-width="2"/>
  <path d="M720 220 H1040" stroke="#81e6d9" stroke-opacity="0.25" stroke-width="2"/>
  <path d="M720 250 H1060" stroke="#81e6d9" stroke-opacity="0.18" stroke-width="2"/>

  <g filter="url(#soft)">
    <circle cx="980" cy="380" r="70" fill="#81e6d9" fill-opacity="0.08"/>
    <circle cx="260" cy="430" r="110" fill="#81e6d9" fill-opacity="0.05"/>
  </g>
</svg>

