<svg xmlns="http://www.w3.org/2000/svg" width="1200" height="600" viewBox="0 0 1200 600">
  <defs>
    <linearGradient id="bg" x1="0" y1="0" x2="1" y2="1">
      <stop offset="0" stop-color="#0e0e0e"/>
      <stop offset="1" stop-color="#201f1f"/>
    </linearGradient>
    <linearGradient id="node" x1="0" y1="0" x2="0" y2="1">
      <stop offset="0" stop-color="#81e6d9" stop-opacity="0.25"/>
      <stop offset="1" stop-color="#81e6d9" stop-opacity="0.08"/>
    </linearGradient>
    <filter id="soft" x="-20%" y="-20%" width="140%" height="140%">
      <feGaussianBlur stdDeviation="10" />
    </filter>
  </defs>

  <rect width="1200" height="600" fill="url(#bg)"/>

  <g stroke="#81e6d9" stroke-opacity="0.25" stroke-width="2" fill="none">
    <path d="M260 190 L520 130 L820 190" />
    <path d="M260 190 L520 320 L820 190" />
    <path d="M520 130 L520 320" />
    <path d="M820 190 L980 320" />
    <path d="M520 320 L980 320" />
  </g>

  <g>
    <circle cx="260" cy="190" r="34" fill="url(#node)" stroke="#2a2a2a" stroke-width="2"/>
    <circle cx="520" cy="130" r="34" fill="url(#node)" stroke="#2a2a2a" stroke-width="2"/>
    <circle cx="820" cy="190" r="34" fill="url(#node)" stroke="#2a2a2a" stroke-width="2"/>
    <circle cx="520" cy="320" r="34" fill="url(#node)" stroke="#2a2a2a" stroke-width="2"/>
    <circle cx="980" cy="320" r="34" fill="url(#node)" stroke="#2a2a2a" stroke-width="2"/>
  </g>

  <rect x="120" y="390" width="960" height="120" fill="#1c1b1b" stroke="#2a2a2a" stroke-width="2"/>
  <rect x="150" y="420" width="420" height="12" fill="#81e6d9" fill-opacity="0.18"/>
  <rect x="150" y="444" width="520" height="12" fill="#81e6d9" fill-opacity="0.12"/>
  <rect x="150" y="468" width="360" height="12" fill="#81e6d9" fill-opacity="0.10"/>

  <g filter="url(#soft)">
    <circle cx="910" cy="170" r="120" fill="#81e6d9" fill-opacity="0.06"/>
  </g>
</svg>

